name Walk9.mot
datacolumns 19
datarows 15
range 1.95800000 1.97200000
endheader

                time	   L_ground_force_vx	   L_ground_force_vy	   L_ground_force_vz	   L_ground_force_px	   L_ground_force_py	   L_ground_force_pz	   R_ground_force_vx	   R_ground_force_vy	   R_ground_force_vz	   R_ground_force_px	   R_ground_force_py	   R_ground_force_pz	   L_ground_torque_x	   L_ground_torque_y	   L_ground_torque_z	   R_ground_torque_x	   R_ground_torque_y	   R_ground_torque_z	
          1.95800000	          0.04244693	          0.16038694	         -0.00256203	         -0.00019463	          0.00000000	         -0.00007311	        -24.38845272	        529.98730253	        -28.28793985	          0.32939143	          0.00000000	          0.07346760	          0.00000000	          0.00013051	          0.00000000	          0.00000000	          0.71252936	          0.00000000	
          1.95900000	          0.04001479	          0.15286305	         -0.00247433	         -0.00019569	          0.00000000	         -0.00007408	        -24.23629733	        529.16173851	        -28.42987535	          0.32998871	          0.00000000	          0.07337326	          0.00000000	          0.00013953	          0.00000000	          0.00000000	          0.71723837	          0.00000000	
          1.96000000	          0.03763823	          0.14540124	         -0.00238474	         -0.00019591	          0.00000000	         -0.00007469	        -24.08712205	        528.37687220	        -28.57416641	          0.33059290	          0.00000000	          0.07327834	          0.00000000	          0.00014726	          0.00000000	          0.00000000	          0.72181356	          0.00000000	
          1.96100000	          0.03532151	          0.13802443	         -0.00229375	         -0.00019538	          0.00000000	         -0.00007496	        -23.94051603	        527.63293356	        -28.72036918	          0.33120377	          0.00000000	          0.07318282	          0.00000000	          0.00015378	          0.00000000	          0.00000000	          0.72625970	          0.00000000	
          1.96200000	          0.03306830	          0.13075326	         -0.00220184	         -0.00019415	          0.00000000	         -0.00007493	        -23.79607144	        526.93010233	        -28.86805301	          0.33182112	          0.00000000	          0.07308667	          0.00000000	          0.00015916	          0.00000000	          0.00000000	          0.73058203	          0.00000000	
          1.96300000	          0.03088171	          0.12360623	         -0.00210941	         -0.00019230	          0.00000000	         -0.00007462	        -23.65338533	        526.26850996	        -29.01680193	          0.33244472	          0.00000000	          0.07298989	          0.00000000	          0.00016349	          0.00000000	          0.00000000	          0.73478621	          0.00000000	
          1.96400000	          0.02876433	          0.11659979	         -0.00201688	         -0.00018987	          0.00000000	         -0.00007405	        -23.51206157	        525.64824215	        -29.16621587	          0.33307435	          0.00000000	          0.07289245	          0.00000000	          0.00016682	          0.00000000	          0.00000000	          0.73887834	          0.00000000	
          1.96500000	          0.02671829	          0.10974847	         -0.00192459	         -0.00018693	          0.00000000	         -0.00007325	        -23.37171284	        525.06934183	        -29.31591154	          0.33370981	          0.00000000	          0.07279434	          0.00000000	          0.00016925	          0.00000000	          0.00000000	          0.74286486	          0.00000000	
          1.96600000	          0.02474525	          0.10306496	         -0.00183288	         -0.00018354	          0.00000000	         -0.00007224	        -23.23196274	        524.53181194	        -29.46552324	          0.33435086	          0.00000000	          0.07269555	          0.00000000	          0.00017083	          0.00000000	          0.00000000	          0.74675237	          0.00000000	
          1.96700000	          0.02284646	          0.09656025	         -0.00174203	         -0.00017974	          0.00000000	         -0.00007105	        -23.09244795	        524.03561780	        -29.61470351	          0.33499730	          0.00000000	          0.07259607	          0.00000000	          0.00017162	          0.00000000	          0.00000000	          0.75054753	          0.00000000	
          1.96800000	          0.02102278	          0.09024372	         -0.00165233	         -0.00017559	          0.00000000	         -0.00006969	        -22.95282022	        523.58068938	        -29.76312382	          0.33564890	          0.00000000	          0.07249589	          0.00000000	          0.00017171	          0.00000000	          0.00000000	          0.75425690	          0.00000000	
          1.96900000	          0.01927472	          0.08412324	         -0.00156401	         -0.00017113	          0.00000000	         -0.00006818	        -22.81274808	        523.16692357	        -29.91047522	          0.33630544	          0.00000000	          0.07239502	          0.00000000	          0.00017113	          0.00000000	          0.00000000	          0.75788687	          0.00000000	
          1.97000000	          0.01760245	          0.07820526	         -0.00147729	         -0.00016639	          0.00000000	         -0.00006654	        -22.67191820	        522.79418677	        -30.05646912	          0.33696670	          0.00000000	          0.07229344	          0.00000000	          0.00016996	          0.00000000	          0.00000000	          0.76144361	          0.00000000	
          1.97100000	          0.01600585	          0.07249494	         -0.00139236	         -0.00016144	          0.00000000	         -0.00006479	        -22.53003633	        522.46231745	        -30.20083818	          0.33763247	          0.00000000	          0.07219116	          0.00000000	          0.00016825	          0.00000000	          0.00000000	          0.76493312	          0.00000000	
          1.97200000	          0.01448452	          0.06699619	         -0.00130940	         -0.00015629	          0.00000000	         -0.00006294	        -22.38682786	        522.17112885	        -30.34333721	          0.33830252	          0.00000000	          0.07208819	          0.00000000	          0.00016604	          0.00000000	          0.00000000	          0.76836122	          0.00000000	
